<?xml version="1.0" encoding="UTF-8" standalone="no"?>
<svg
   id="Layer_1"
   version="1.1"
   viewBox="0 0 599.99998 599.99999"
   sodipodi:docname="deepseeklogo.svg"
   width="600"
   height="600"
   inkscape:version="1.3 (0e150ed6c4, 2023-07-21)"
   xmlns:inkscape="http://www.inkscape.org/namespaces/inkscape"
   xmlns:sodipodi="http://sodipodi.sourceforge.net/DTD/sodipodi-0.dtd"
   xmlns="http://www.w3.org/2000/svg"
   xmlns:svg="http://www.w3.org/2000/svg">
  <sodipodi:namedview
     id="namedview2"
     pagecolor="#ffffff"
     bordercolor="#000000"
     borderopacity="0.25"
     inkscape:showpageshadow="2"
     inkscape:pageopacity="0.0"
     inkscape:pagecheckerboard="0"
     inkscape:deskcolor="#d1d1d1"
     inkscape:zoom="0.51788842"
     inkscape:cx="98.476811"
     inkscape:cy="211.43551"
     inkscape:window-width="1366"
     inkscape:window-height="697"
     inkscape:window-x="-8"
     inkscape:window-y="-8"
     inkscape:window-maximized="1"
     inkscape:current-layer="Layer_1" />
  <!-- Generator: Adobe Illustrator 29.2.1, SVG Export Plug-In . SVG Version: 2.1.0 Build 116)  -->
  <defs
     id="defs1">
    <style
       id="style1">&#10;      .st0 {&#10;        fill: #4d6bfe;&#10;      }&#10;    </style>
  </defs>
  <path
     class="st0"
     d="m 569.22971,131.59735 c -5.82564,-2.85459 -8.33478,2.58547 -11.74131,5.34905 -1.16552,0.89151 -2.15097,2.05018 -3.1374,3.1198 -8.51485,9.09319 -18.46335,15.06856 -31.4602,14.35418 -19.00157,-1.0706 -35.22489,4.90476 -49.56635,19.43803 -3.04737,-17.9212 -13.17496,-28.62224 -28.5919,-35.48618 -8.06566,-3.56701 -16.22234,-7.13403 -21.86987,-14.89143 -3.94377,-5.52618 -5.01926,-11.67867 -6.99115,-17.74211 -1.25555,-3.65509 -2.51012,-7.401186 -6.72302,-8.025536 -4.57106,-0.71243 -6.36387,3.119786 -8.15667,6.331566 -7.17024,13.10744 -9.9485,27.55165 -9.68036,42.17397 0.62728,32.90168 14.52054,59.11361 42.12601,77.74919 3.13741,2.14021 3.94378,4.27846 2.95832,7.40119 -1.88283,6.41965 -4.12384,12.66021 -6.09475,19.07986 -1.25555,4.10231 -3.13839,4.99382 -7.52939,3.20885 -15.14782,-6.32864 -28.23471,-15.69193 -39.79693,-27.01439 -19.62886,-18.99179 -37.37586,-39.94471 -59.51386,-56.35102 -5.19835,-3.83417 -10.39768,-7.39923 -15.7761,-10.78912 -22.58718,-21.9325 2.95833,-39.9447 8.87399,-42.08295 6.18381,-2.22927 2.15098,-9.89859 -17.83703,-9.80758 -19.98801,0.0881 -38.27227,6.77586 -61.57579,15.69193 -3.40554,1.33775 -6.99213,2.31734 -10.66679,3.11979 -21.15255,-4.0113 -43.11245,-4.90477 -66.0578,-2.31733 -43.20248,4.81375 -77.709066,25.23235 -103.074506,60.09515 -30.47377,41.90583 -37.644,89.51692 -28.86005,139.18113 9.23216,52.33678 35.94123,95.66941 76.992736,129.55263 42.57519,35.12801 91.6033,52.33678 147.53254,49.0379 33.97031,-1.96113 71.79438,-6.50773 114.45862,-42.61825 10.75487,5.35003 22.04895,7.48828 40.78239,9.0932 14.43051,1.33775 28.32377,-0.71243 39.07863,-2.94071 16.85061,-3.56702 15.68607,-19.17088 9.59131,-22.02351 -49.38628,-23.00309 -38.54236,-13.64175 -48.40082,-21.22105 25.09632,-29.6899 62.92136,-60.5414 77.71004,-160.49221 1.16454,-7.93453 0.17909,-12.92835 0,-19.348 -0.0881,-3.92225 0.80638,-5.43713 5.28839,-5.88435 12.36859,-1.42681 24.37901,-4.81376 35.40397,-10.8772 31.99843,-17.47495 44.90427,-46.18526 47.95165,-80.60182 0.44918,-5.26098 -0.0881,-10.70105 -5.64655,-13.46267 z M 290.38794,441.34346 c -47.8626,-37.62443 -71.07609,-50.01944 -80.66739,-49.48414 -8.96305,0.5353 -7.34933,10.78912 -5.37842,17.47691 2.06192,6.59677 4.75113,11.14533 8.51485,16.93965 2.59917,3.83418 4.39295,9.53944 -2.5982,13.82084 -15.41695,9.54042 -42.21702,-3.2108 -43.47257,-3.83417 -31.1901,-18.36842 -57.27286,-42.62119 -75.648126,-75.78709 -17.747,-31.9221 -28.05367,-66.1586 -29.75742,-102.71537 -0.44821,-8.82604 2.15097,-11.94877 10.93493,-13.55172 11.56222,-2.14021 23.48358,-2.58743 35.045796,-0.89347 48.85001,7.13403 90.43779,28.97845 125.30353,63.57312 19.89798,19.70421 34.95577,43.24456 50.46275,66.24765 16.49145,24.42892 34.23845,47.7021 56.82564,66.78197 7.97661,6.6868 14.34048,11.7687 20.43523,15.5148 -18.37331,2.05018 -49.02812,2.4974 -70.00158,-14.08898 z m 22.94535,-147.5619 c 0,-3.92322 3.13741,-7.04302 7.08217,-7.04302 0.8964,0 1.70277,0.17615 2.42009,0.44331 0.98643,0.35817 1.88283,0.89347 2.59917,1.69397 1.25555,1.24968 1.97189,3.03172 1.97189,4.90477 0,3.92322 -3.13643,7.04302 -7.07923,7.04302 -3.9428,0 -6.99213,-3.1198 -6.99213,-7.04302 z m 71.25713,36.55677 c -4.57107,1.87305 -9.14213,3.47601 -13.53411,3.65509 -6.81207,0.35622 -14.25142,-2.40834 -18.28426,-5.79627 -6.27383,-5.26098 -10.75584,-8.20169 -12.6377,-17.3859 -0.80735,-3.92323 -0.35915,-9.98667 0.35915,-13.46267 1.61274,-7.49024 -0.18007,-12.304 -5.46747,-16.67445 -4.30293,-3.56702 -9.77039,-4.5466 -15.77609,-4.5466 -2.24101,0 -4.30097,-0.98154 -5.82564,-1.784 -2.51012,-1.24772 -4.57008,-4.36849 -2.59917,-8.20267 0.62728,-1.24674 3.67564,-4.27944 4.39296,-4.81375 8.15667,-4.63761 17.56791,-3.12078 26.26184,0.35621 8.06762,3.29888 14.16237,9.36231 22.94535,17.92119 8.96305,10.3419 10.57579,13.19747 15.68509,20.95292 4.03478,6.06343 7.70945,12.304 10.21859,19.43803 1.52369,4.45852 -0.4482,8.11361 -5.73658,10.34287 z"
     id="path1"
     style="stroke-width:9.78605" />
</svg>
