<?xml version="1.0" encoding="UTF-8" standalone="no"?>
<svg
   id="Math_Learning_Center_Logo"
   data-name="Math Learning Center Logo"
   width="600"
   height="600"
   viewBox="0 0 599.99998 600"
   version="1.1"
   sodipodi:docname="mathapps.svg"
   xml:space="preserve"
   inkscape:version="1.3 (0e150ed6c4, 2023-07-21)"
   xmlns:inkscape="http://www.inkscape.org/namespaces/inkscape"
   xmlns:sodipodi="http://sodipodi.sourceforge.net/DTD/sodipodi-0.dtd"
   xmlns="http://www.w3.org/2000/svg"
   xmlns:svg="http://www.w3.org/2000/svg"><defs
     id="defs1" /><sodipodi:namedview
     id="namedview1"
     pagecolor="#ffffff"
     bordercolor="#000000"
     borderopacity="0.25"
     inkscape:showpageshadow="2"
     inkscape:pageopacity="0.0"
     inkscape:pagecheckerboard="0"
     inkscape:deskcolor="#d1d1d1"
     inkscape:zoom="0.51704995"
     inkscape:cx="137.31749"
     inkscape:cy="269.79985"
     inkscape:window-width="1366"
     inkscape:window-height="697"
     inkscape:window-x="-8"
     inkscape:window-y="-8"
     inkscape:window-maximized="1"
     inkscape:current-layer="Math_Learning_Center_Logo" /><g
     id="g1"
     transform="matrix(2.0081772,0,0,2.0081772,-9.231716,-16.189941)"><path
       id="Path_10324"
       data-name="Path 10324"
       d="m 83.071537,242.99268 65.945033,38.04779 V 195.05186 L 83.071537,156.89077 Z"
       fill="#fff"
       style="fill:#003e7e;fill-opacity:1;stroke-width:5.14994" /><path
       id="Path_10325"
       data-name="Path 10325"
       d="m 159.17741,195.05186 v 86.00406 l 65.96048,-38.04779 v -86.11736 z"
       fill="#fff"
       style="fill:#003e7e;fill-opacity:1;stroke-width:5.14994" /><path
       id="Path_10326"
       data-name="Path 10326"
       d="M 37.267936,243.02873 A 13.997548,13.997548 0 0 1 23.321886,229.08269 V 42.438418 c 0,-7.668267 5.438343,-10.789129 12.05602,-6.947275 L 153.98112,104.1399 72.890098,151.14343 v 91.8853 z"
       fill="#fff"
       style="fill:#003e7e;fill-opacity:1;stroke-width:5.14994" /><path
       id="Path_10327"
       data-name="Path 10327"
       d="m 270.72005,243.02873 a 13.987248,13.987248 0 0 0 13.9306,-13.94604 V 42.438418 c 0.005,-7.668267 -5.4229,-10.789129 -12.03542,-6.947275 l -118.63411,68.648757 81.12191,47.00353 v 91.8853 z"
       fill="#fff"
       style="fill:#003e7e;fill-opacity:1;stroke-width:5.14994" /></g></svg>
