<?xml version="1.0" encoding="UTF-8" standalone="no"?>
<svg
   id="Math_Learning_Center_Logo"
   data-name="Math Learning Center Logo"
   width="354.898"
   height="48"
   viewBox="0 0 354.898 48"
   version="1.1"
   sodipodi:docname="mathapps.svg"
   xml:space="preserve"
   inkscape:version="1.3 (0e150ed6c4, 2023-07-21)"
   xmlns:inkscape="http://www.inkscape.org/namespaces/inkscape"
   xmlns:sodipodi="http://sodipodi.sourceforge.net/DTD/sodipodi-0.dtd"
   xmlns="http://www.w3.org/2000/svg"
   xmlns:svg="http://www.w3.org/2000/svg"><defs
     id="defs1" /><sodipodi:namedview
     id="namedview1"
     pagecolor="#ffffff"
     bordercolor="#000000"
     borderopacity="0.25"
     inkscape:showpageshadow="2"
     inkscape:pageopacity="0.0"
     inkscape:pagecheckerboard="0"
     inkscape:deskcolor="#d1d1d1"
     inkscape:zoom="1.0340999"
     inkscape:cx="176.96549"
     inkscape:cy="23.692102"
     inkscape:window-width="1366"
     inkscape:window-height="697"
     inkscape:window-x="-8"
     inkscape:window-y="-8"
     inkscape:window-maximized="1"
     inkscape:current-layer="Math_Learning_Center_Logo" /><path
     id="Path_10324"
     data-name="Path 10324"
     d="M10.036,37.419l12.805,7.388V28.11L10.036,20.7Z"
     transform="translate(1.566 3.193)"
     fill="#fff"
     style="fill:#003e7e;fill-opacity:1" /><path
     id="Path_10325"
     data-name="Path 10325"
     d="M22.82,28.11v16.7l12.808-7.388V20.7Z"
     transform="translate(3.56 3.193)"
     fill="#fff"
     style="fill:#003e7e;fill-opacity:1" /><path
     id="Path_10326"
     data-name="Path 10326"
     d="M2.708,40.619A2.718,2.718,0,0,1,0,37.911V1.669C0,.18,1.056-.426,2.341.32l23.03,13.33L9.625,22.777V40.619Z"
     transform="translate(0 0)"
     fill="#fff"
     style="fill:#003e7e;fill-opacity:1" /><path
     id="Path_10327"
     data-name="Path 10327"
     d="M44.632,40.619a2.716,2.716,0,0,0,2.705-2.708V1.669C47.338.18,46.284-.426,45,.32L21.964,13.65l15.752,9.127V40.619Z"
     transform="translate(3.407 0)"
     fill="#fff"
     style="fill:#003e7e;fill-opacity:1" /><path
     id="Path_10328"
     data-name="Path 10328"
     d="M146.627,21.567h3.29v1.854h-5.146V11.816h1.856Z"
     transform="translate(22.46 1.833)"
     fill="#fff"
     style="fill:#003e7e;fill-opacity:1" /><path
     id="Path_10329"
     data-name="Path 10329"
     d="M288.9,11.816h5.721v1.859h-3.865v2.483h3.865v1.852h-3.865v3.558h3.865v1.855H288.9Z"
     transform="translate(44.821 1.833)"
     fill="#fff"
     style="fill:#003e7e;fill-opacity:1" /><path
     id="Path_10330"
     data-name="Path 10330"
     d="M254.227,11.714h5.719v1.859h-3.863v2.483h3.863v1.852h-3.863v3.558h3.863V23.32h-5.719Z"
     transform="translate(39.441 1.818)"
     fill="#fff"
     style="fill:#003e7e;fill-opacity:1" /><path
     id="Path_10331"
     data-name="Path 10331"
     d="M186.461,23.421h-2.367L181.3,19.484h-1.424v3.937h-1.859V11.816h3.6a3.881,3.881,0,0,1,3.87,3.88,3.826,3.826,0,0,1-2.107,3.427ZM183.55,15.7a1.942,1.942,0,0,0-1.931-1.948h-1.742V17.63h1.742A1.94,1.94,0,0,0,183.55,15.7"
     transform="translate(27.618 1.833)"
     fill="#fff"
     style="fill:#003e7e;fill-opacity:1" /><path
     id="Path_10332"
     data-name="Path 10332"
     d="M308.367,23.421H306l-2.793-3.937h-1.424v3.937h-1.861V11.816h3.6a3.88,3.88,0,0,1,3.872,3.88,3.819,3.819,0,0,1-2.109,3.427ZM305.458,15.7a1.942,1.942,0,0,0-1.936-1.948h-1.737V17.63h1.737a1.941,1.941,0,0,0,1.936-1.934"
     transform="translate(46.53 1.833)"
     fill="#fff"
     style="fill:#003e7e;fill-opacity:1" /><path
     id="Path_10333"
     data-name="Path 10333"
     d="M196.559,11.816h1.811V23.422h-1.532L192.3,16.01v7.412h-1.815V11.816H192l4.562,7.409Z"
     transform="translate(29.551 1.833)"
     fill="#fff"
     style="fill:#003e7e;fill-opacity:1" /><path
     id="Path_10334"
     data-name="Path 10334"
     d="M271.418,11.816h1.814V23.422H271.7l-4.543-7.412v7.412h-1.812V11.816h1.519l4.557,7.409Z"
     transform="translate(41.165 1.833)"
     fill="#fff"
     style="fill:#003e7e;fill-opacity:1" /><path
     id="Path_10335"
     data-name="Path 10335"
     d="M219.881,11.816h1.814V23.422h-1.536l-4.541-7.412v7.412H213.8V11.816h1.517l4.562,7.409Z"
     transform="translate(33.169 1.833)"
     fill="#fff"
     style="fill:#003e7e;fill-opacity:1" /><path
     id="Path_10336"
     data-name="Path 10336"
     d="M204.972,13.675h-1.929V11.816h5.715v1.859h-1.927v7.892h1.927v1.855h-5.715V21.567h1.929Z"
     transform="translate(31.5 1.833)"
     fill="#fff"
     style="fill:#003e7e;fill-opacity:1" /><path
     id="Path_10337"
     data-name="Path 10337"
     d="M231.682,19.511h-1.949V17.657h3.807v5.791h-.521l-.4-.713a3.956,3.956,0,0,1-2.436.9c-2.807,0-4.625-2.7-4.625-5.983s1.818-6,4.625-6a4.364,4.364,0,0,1,3.586,2.227l-1.149,1.079a2.942,2.942,0,0,0-2.314-1.379c-1.462,0-2.7,1.55-2.7,4.078,0,2.5,1.238,4.051,2.7,4.051a2.343,2.343,0,0,0,1.373-.455Z"
     transform="translate(34.994 1.808)"
     fill="#fff"
     style="fill:#003e7e;fill-opacity:1" /><path
     id="Path_10338"
     data-name="Path 10338"
     d="M246.646,11.652a4.6,4.6,0,0,1,3.743,2.227l-1.224,1.078a3.1,3.1,0,0,0-2.437-1.378c-1.529,0-2.849,1.55-2.849,4.077,0,2.5,1.319,4.052,2.849,4.052a3.051,3.051,0,0,0,2.437-1.376l1.224,1.08a4.609,4.609,0,0,1-3.743,2.227c-2.921,0-4.815-2.7-4.815-5.984s1.893-6,4.815-6"
     transform="translate(37.518 1.808)"
     fill="#fff"
     style="fill:#003e7e;fill-opacity:1" /><path
     id="Path_10339"
     data-name="Path 10339"
     d="M97.729,23.422V16.427l-2.8,5.255h-.381l-2.8-5.255v6.995H89.9V11.816h1.581l3.253,6.108,3.254-6.108h1.586V23.422Z"
     transform="translate(13.947 1.833)"
     fill="#fff"
     style="fill:#003e7e;fill-opacity:1" /><path
     id="Path_10340"
     data-name="Path 10340"
     d="M106,23.448h-1.842v-7.34c0-2.872,1.651-4.456,3.774-4.456s3.775,1.584,3.775,4.456v7.34h-1.844V19.51H106Zm3.863-7.34c0-1.709-.871-2.529-1.931-2.529S106,14.4,106,16.108v1.548h3.863Z"
     transform="translate(16.158 1.808)"
     fill="#fff"
     style="fill:#003e7e;fill-opacity:1" /><path
     id="Path_10341"
     data-name="Path 10341"
     d="M167.051,23.448h-1.845v-7.34c0-2.872,1.651-4.456,3.774-4.456,2.142,0,3.777,1.584,3.777,4.456v7.34h-1.844V19.51h-3.863Zm3.863-7.34c0-1.709-.871-2.529-1.934-2.529s-1.929.82-1.929,2.529v1.548h3.863Z"
     transform="translate(25.63 1.808)"
     fill="#fff"
     style="fill:#003e7e;fill-opacity:1" /><path
     id="Path_10342"
     data-name="Path 10342"
     d="M133.147,16.157V11.816h1.872V23.422h-1.872V18.01h-3.863v5.412h-1.842V11.816h1.842v4.341Z"
     transform="translate(19.771 1.833)"
     fill="#fff"
     style="fill:#003e7e;fill-opacity:1" /><path
     id="Path_10343"
     data-name="Path 10343"
     d="M53.674,13.675V11.816h8.42v1.859H58.8v9.748H56.961V13.675Z"
     transform="translate(8.327 1.833)"
     fill="#fff"
     style="fill:#003e7e;fill-opacity:1" /><path
     id="Path_10344"
     data-name="Path 10344"
     d="M115.2,13.675V11.816h8.417v1.859h-3.29v9.748h-1.842V13.675Z"
     transform="translate(17.872 1.833)"
     fill="#fff"
     style="fill:#003e7e;fill-opacity:1" /><path
     id="Path_10345"
     data-name="Path 10345"
     d="M68.679,15.058c1.827,0,3.337,1.508,3.337,3.953v4.512H70.173V19.059c0-1.508-.826-2.3-1.778-2.3a1.944,1.944,0,0,0-1.859,1.953v4.813H64.693V11.164h1.844v4.718a3.27,3.27,0,0,1,2.143-.824"
     transform="translate(10.037 1.732)"
     fill="#fff"
     style="fill:#003e7e;fill-opacity:1" /><path
     id="Path_10346"
     data-name="Path 10346"
     d="M78.669,21.524A3.322,3.322,0,0,0,80.8,20.57l.921,1.112a4.252,4.252,0,0,1-3.207,1.491,4.088,4.088,0,0,1-4.273-4.287,4.115,4.115,0,0,1,4.081-4.352,3.725,3.725,0,0,1,3.655,4.524H76.16a2.362,2.362,0,0,0,2.509,2.465m1.4-3.923c0-.812-.637-1.415-1.733-1.415A1.989,1.989,0,0,0,76.4,17.6Z"
     transform="translate(11.517 2.255)"
     fill="#fff"
     style="fill:#003e7e;fill-opacity:1" /><path
     id="Path_10347"
     data-name="Path 10347"
     d="M276.833,13.675V11.816h8.417v1.859h-3.29v9.748h-1.842V13.675Z"
     transform="translate(42.948 1.833)"
     fill="#fff"
     style="fill:#003e7e;fill-opacity:1" /><path
     id="Path_10348"
     data-name="Path 10348"
     d="M154.363,11.816h5.72v1.859h-3.864v2.483h3.864v1.852h-3.864v3.558h3.864v1.855h-5.72Z"
     transform="translate(23.948 1.833)"
     fill="#fff"
     style="fill:#003e7e;fill-opacity:1" /><rect
     id="Rectangle_2086"
     data-name="Rectangle 2086"
     width="292.896"
     height="1.234"
     transform="translate(62.001 39.384)"
     fill="#fff"
     style="fill:#003e7e;fill-opacity:1" /></svg>
