<?xml version="1.0" encoding="UTF-8" standalone="no"?>
<svg
   id="Layer_2"
   data-name="Layer 2"
   viewBox="0 0 599.99998 600.00001"
   version="1.1"
   sodipodi:docname="notebooklmlogo.svg"
   width="600"
   height="600"
   inkscape:version="1.3 (0e150ed6c4, 2023-07-21)"
   xmlns:inkscape="http://www.inkscape.org/namespaces/inkscape"
   xmlns:sodipodi="http://sodipodi.sourceforge.net/DTD/sodipodi-0.dtd"
   xmlns="http://www.w3.org/2000/svg"
   xmlns:svg="http://www.w3.org/2000/svg">
  <sodipodi:namedview
     id="namedview11"
     pagecolor="#ffffff"
     bordercolor="#000000"
     borderopacity="0.25"
     inkscape:showpageshadow="2"
     inkscape:pageopacity="0.0"
     inkscape:pagecheckerboard="0"
     inkscape:deskcolor="#d1d1d1"
     inkscape:zoom="0.53143209"
     inkscape:cx="380.10501"
     inkscape:cy="190.99336"
     inkscape:window-width="1366"
     inkscape:window-height="697"
     inkscape:window-x="-8"
     inkscape:window-y="-8"
     inkscape:window-maximized="1"
     inkscape:current-layer="Layer_2" />
  <defs
     id="defs1">
    <style
       id="style1">&#10;      .cls-1 {&#10;        stroke-width: 0px;&#10;      }&#10;    </style>
  </defs>
  <path
     class="cls-1"
     d="M 299.97404,98.364485 C 148.10488,98.364485 25,220.43094 25,371.05399 v 130.58153 h 50.67497 v -13.03219 c 0,-61.11111 49.89616,-110.64382 111.52648,-110.64382 61.63033,0 111.52648,49.5327 111.52648,110.64382 v 13.03219 h 50.67498 v -13.03219 c 0,-88.83697 -72.63759,-160.85151 -162.20146,-160.85151 -34.89096,0 -67.18587,10.90343 -93.6137,29.5431 27.67393,-54.56906 84.68328,-92.05608 150.51921,-92.05608 92.99065,0 168.38006,74.81828 168.38006,166.97819 v 69.36657 h 50.67497 v -69.36657 c 0,-119.98961 -98.07892,-217.28972 -219.05503,-217.28972 -54.41329,0 -104.15369,19.67809 -142.47145,52.23261 37.64279,-70.56075 112.3053,-118.58775 198.39045,-118.58775 123.8837,0 224.29907,99.58464 224.29907,222.4299 V 501.58359 H 575 V 371.00207 C 574.94808,220.43094 451.8432,98.364485 299.97404,98.364485 Z"
     id="path11" />
</svg>
