<svg width="65" height="40" viewBox="0 0 65 40" fill="none" xmlns="http://www.w3.org/2000/svg">
<path d="M52.3831 32.7825V24.6438H55.1381C55.7032 24.6438 56.2101 24.7185 56.6589 24.8678C57.116 25.0172 57.4733 25.2702 57.7309 25.6269C57.9969 25.9754 58.1298 26.4524 58.1298 27.0581C58.1298 27.6803 57.9803 28.1822 57.6811 28.5638C57.3902 28.9455 56.9996 29.2192 56.5093 29.3852L58.454 32.7825H56.8334L55.0757 29.5967H53.8292V32.7825H52.3831ZM53.8292 28.4518H54.9885C55.5453 28.4518 55.9691 28.3357 56.26 28.1034C56.5592 27.8628 56.7087 27.5143 56.7087 27.0581C56.7087 26.5935 56.5592 26.2699 56.26 26.0874C55.9691 25.8966 55.5453 25.8012 54.9885 25.8012H53.8292V28.4518Z" fill="#009FA1"/>
<path d="M43.5563 32.7825V24.6438H48.4678V25.8634H45.0023V27.9416H47.9318V29.1612H45.0023V31.5629H48.5925V32.7825H43.5563Z" fill="#009FA1"/>
<path d="M32.2772 32.7825L30.6567 24.6438H32.1401L32.8507 28.7505C32.9171 29.1819 32.9836 29.6175 33.0501 30.0572C33.1249 30.4886 33.1914 30.92 33.2496 31.3514H33.2994C33.3908 30.92 33.4781 30.4886 33.5612 30.0572C33.6526 29.6175 33.744 29.1819 33.8355 28.7505L34.8327 24.6438H36.0918L37.089 28.7505C37.1804 29.1736 37.2718 29.605 37.3633 30.0447C37.4547 30.4761 37.5461 30.9117 37.6375 31.3514H37.6874C37.7539 30.9117 37.8203 30.4761 37.8868 30.0447C37.9533 29.6133 38.0156 29.1819 38.0738 28.7505L38.7844 24.6438H40.1681L38.6098 32.7825H36.8148L35.805 28.5016C35.7386 28.1863 35.6721 27.8711 35.6056 27.5558C35.5474 27.2406 35.4934 26.9295 35.4435 26.6225H35.3937C35.3355 26.9295 35.2732 27.2406 35.2067 27.5558C35.1485 27.8711 35.0862 28.1863 35.0197 28.5016L34.0349 32.7825H32.2772Z" fill="#009FA1"/>
<path d="M22.6401 32.7825V24.6438H27.5516V25.8634H24.0862V27.9416H27.0156V29.1612H24.0862V31.5629H27.6763V32.7825H22.6401Z" fill="#009FA1"/>
<path d="M17.0028 32.7825V24.6438H18.4488V32.7825H17.0028Z" fill="#009FA1"/>
<path d="M9.65881 32.7825L7.11579 24.6438H8.64908L9.79593 28.7381C9.9289 29.1943 10.0494 29.6341 10.1574 30.0572C10.2655 30.4803 10.386 30.9241 10.5189 31.3887H10.5688C10.7101 30.9241 10.8306 30.4803 10.9303 30.0572C11.0384 29.6341 11.1547 29.1943 11.2794 28.7381L12.4137 24.6438H13.8972L11.3666 32.7825H9.65881Z" fill="#009FA1"/>
<path d="M54.3776 19.5555V8.61683H50.6752V7.31017H59.6506V8.61683H55.9482V19.5555H54.3776Z" fill="#009FA1"/>
<path d="M46.13 19.5556V7.31027H47.682V19.5556H46.13Z" fill="#009FA1"/>
<path d="M33.4544 19.5556V7.31027H37.1006C37.9358 7.31027 38.6651 7.40983 39.2884 7.60894C39.9241 7.80805 40.4165 8.12539 40.7656 8.56094C41.1271 8.9965 41.3078 9.57516 41.3078 10.2969C41.3078 10.9067 41.152 11.4605 40.8404 11.9583C40.5412 12.4436 40.0986 12.7796 39.5128 12.9663V13.0409C40.2482 13.1778 40.8466 13.4889 41.3078 13.9743C41.7815 14.4596 42.0184 15.1254 42.0184 15.9716C42.0184 16.7681 41.8189 17.4338 41.42 17.9689C41.0336 18.5041 40.4913 18.9023 39.7932 19.1636C39.0952 19.4249 38.2849 19.5556 37.3624 19.5556H33.4544ZM35.0064 12.5183H36.8202C37.8673 12.5183 38.6215 12.3378 39.0827 11.9769C39.5439 11.6161 39.7745 11.1245 39.7745 10.5023C39.7745 9.79294 39.5315 9.28894 39.0453 8.99027C38.5716 8.69161 37.8548 8.54227 36.8949 8.54227H35.0064V12.5183ZM35.0064 18.3236H37.138C38.1976 18.3236 39.0204 18.1307 39.6062 17.7449C40.1921 17.3467 40.4851 16.7369 40.4851 15.9156C40.4851 15.1565 40.1921 14.6027 39.6062 14.2543C39.0328 13.8934 38.2101 13.7129 37.138 13.7129H35.0064V18.3236Z" fill="#009FA1"/>
<path d="M21.1258 19.5556V7.31027H24.959C25.7942 7.31027 26.5359 7.42227 27.1841 7.64627C27.8323 7.85783 28.3372 8.21872 28.6987 8.72894C29.0727 9.22672 29.2597 9.89872 29.2597 10.7449C29.2597 11.6907 29.0104 12.4561 28.5117 13.0409C28.0131 13.6134 27.3399 14.0054 26.4923 14.2169L29.6149 19.5556H27.8573L24.9029 14.3849H22.6777V19.5556H21.1258ZM22.6777 13.1156H24.7346C25.6945 13.1156 26.4299 12.9227 26.941 12.5369C27.4521 12.1387 27.7077 11.5414 27.7077 10.7449C27.7077 9.93605 27.4521 9.36983 26.941 9.04627C26.4299 8.72272 25.6945 8.56094 24.7346 8.56094H22.6777V13.1156Z" fill="#009FA1"/>
<path d="M9.05848 7.64144C10.0779 7.19218 11.1955 7.02556 12.294 7.15272C12.6797 7.19759 12.915 7.57892 12.8271 7.95654L12.8071 8.02512C12.6918 8.36152 12.337 8.56188 11.974 8.53206L11.6741 8.51644C10.9738 8.50221 10.2743 8.64056 9.62629 8.92616L9.44977 9.00863C8.57289 9.43822 7.84557 10.1242 7.36635 10.9774L7.27418 11.1493C6.83139 12.0183 6.66253 13.0027 6.79245 13.9722C6.93104 15.0062 7.40226 15.9679 8.13502 16.7118C8.86776 17.4554 9.82257 17.9415 10.8558 18.0972C11.8246 18.2431 12.8135 18.0914 13.6914 17.664L13.8653 17.5746C14.7853 17.0797 15.5194 16.2996 15.9574 15.3524C16.2966 14.6188 16.444 13.8153 16.3913 13.0164C16.3659 12.6296 16.6022 12.256 16.9817 12.1744C17.3615 12.093 17.74 12.3345 17.7782 12.7204C17.8872 13.8189 17.7017 14.9311 17.2348 15.9409L17.1243 16.1683C16.5497 17.2892 15.6461 18.2115 14.5322 18.8107C13.4185 19.4098 12.1504 19.6554 10.8967 19.5182L10.6463 19.4861C9.39506 19.2976 8.23259 18.7337 7.31244 17.8723L7.13157 17.6961C6.18521 16.7354 5.57668 15.4934 5.3977 14.1579C5.23004 12.9061 5.44861 11.6352 6.0203 10.513L6.13942 10.2899C6.75834 9.18809 7.69737 8.30211 8.82979 7.74734L9.05848 7.64144Z" fill="#009FA1"/>
<path d="M16.9183 9.33328C16.9183 10.0697 16.3203 10.6666 15.5826 10.6666C14.845 10.6666 14.247 10.0697 14.247 9.33328C14.247 8.5969 14.845 7.99994 15.5826 7.99994C16.3203 7.99994 16.9183 8.5969 16.9183 9.33328Z" fill="#009FA1"/>
</svg>
