<?xml version="1.0" encoding="UTF-8" standalone="no"?>
<svg
   viewBox="0 0 11338.58 4983.9913"
   version="1.1"
   id="svg13"
   sodipodi:docname="tinkercad_ok.svg"
   inkscape:version="1.3 (0e150ed6c4, 2023-07-21)"
   width="2999.9993mm"
   height="1318.681mm"
   xmlns:inkscape="http://www.inkscape.org/namespaces/inkscape"
   xmlns:sodipodi="http://sodipodi.sourceforge.net/DTD/sodipodi-0.dtd"
   xmlns="http://www.w3.org/2000/svg"
   xmlns:svg="http://www.w3.org/2000/svg">
  <defs
     id="defs13" />
  <sodipodi:namedview
     id="namedview13"
     pagecolor="#ffffff"
     bordercolor="#000000"
     borderopacity="0.25"
     inkscape:showpageshadow="2"
     inkscape:pageopacity="0.0"
     inkscape:pagecheckerboard="0"
     inkscape:deskcolor="#d1d1d1"
     inkscape:zoom="0.035646729"
     inkscape:cx="7644.4601"
     inkscape:cy="2342.4309"
     inkscape:window-width="1366"
     inkscape:window-height="697"
     inkscape:window-x="-8"
     inkscape:window-y="-8"
     inkscape:window-maximized="1"
     inkscape:current-layer="svg13"
     inkscape:document-units="mm" />
  <g
     id="g13"
     transform="matrix(28.010542,0,0,28.010542,-4262.7466,460.56444)">
    <path
       d="m 332.93335,57.290568 h -11.91311 l -2.96604,9.426472 h -3.36095 l 9.99297,-30.548187 h 4.49397 l 10.30075,30.548187 h -3.40452 z m -11.03885,-2.70456 h 10.1673 L 326.91144,38.568367 Z M 366.96233,36.168853 V 66.71704 h -2.92242 l -0.21794,-3.796734 c -1.70222,2.007312 -4.63015,4.31967 -9.38286,4.31967 -6.67835,0 -9.5572,-4.630166 -9.5572,-10.349778 V 36.163406 h 3.26836 v 20.860249 c 0,4.188936 1.78669,7.547167 6.93704,7.547167 4.53759,0 7.08143,-2.573827 8.59578,-4.973341 V 36.174299 Z m 28.35023,2.70456 h -9.1187 V 66.71704 h -3.26835 V 38.873413 h -9.0833 v -2.70456 h 21.47035 z m 28.32297,9.295734 v 6.721907 c 0,6.849923 -3.66598,12.348922 -11.86955,12.348922 -8.20357,0 -11.86955,-5.488105 -11.86955,-12.348922 v -6.721907 c 0,-7.198542 3.70955,-12.528677 11.86955,-12.528677 8.24713,0.0055 11.86955,5.458146 11.86955,12.528677 z m -20.46804,-0.0354 v 6.852641 c 0,5.365543 2.53025,9.598057 8.59849,9.598057 6.06823,0 8.59577,-4.232514 8.59577,-9.598057 v -6.852641 c 0,-5.629735 -2.53024,-9.805051 -8.59577,-9.805051 -5.97835,-0.02179 -8.59849,4.085437 -8.59849,9.805051 z m 50.01667,0.253296 v 5.324688 c 0,7.985669 -4.71187,13.005315 -13.43835,13.005315 h -7.59347 V 36.168853 h 8.67746 c 8.20899,0 12.35436,4.88346 12.35436,12.218184 z m -3.26835,-0.08716 c 0,-5.847623 -3.0995,-9.470046 -9.26034,-9.470046 h -5.23753 v 25.2235 h 4.32241 c 6.67558,0 10.16728,-3.576121 10.16728,-10.254454 z m 14.92547,-9.470047 v 10.823688 h 12.30533 v 2.70456 h -12.30533 v 11.695252 h 13.26408 v 2.663705 H 461.56747 V 36.168853 h 16.53789 v 2.660982 z m 19.16341,19.463028 h 3.14306 c 0.21789,3.360958 2.22523,6.242553 8.11644,6.242553 5.89119,0 7.37286,-2.925177 7.37286,-5.193953 v -1.005015 c 0,-3.096763 -1.83301,-4.232513 -6.41417,-5.719612 l -4.40683,-1.440797 c -4.71187,-1.571532 -6.63202,-3.540715 -6.63202,-7.244846 v -0.958715 c 0,-3.268352 2.79171,-7.332001 10.21086,-7.332001 6.93709,0 10.29804,3.753156 10.51593,8.59576 h -3.14035 c -0.21789,-2.966025 -1.96643,-5.934777 -7.37558,-5.934777 -5.2811,0 -6.89618,2.663706 -6.89618,4.671018 v 0.871559 c 0,2.268783 1.36179,3.578846 5.54256,4.929765 l 4.40679,1.397219 c 4.93251,1.571532 7.46276,3.622422 7.46276,7.942092 v 1.089451 c 0,4.10178 -2.99597,8.029247 -10.64663,8.029247 -7.20131,0.0082 -10.91086,-3.614253 -11.2595,-8.938941 z m 52.32628,6.111814 -0.0435,2.268785 a 4.0854384,4.0854384 0 0 1 -1.78944,0.348624 c -2.00733,0 -3.18393,-0.697248 -4.6683,-2.838021 l -8.29068,-12.131028 -4.32241,5.411848 v 9.260327 h -3.14035 v -30.55636 h 3.14035 v 16.845623 l 13.3975,-16.845623 h 3.57888 l -10.64668,13.528248 9.1187,13.179627 c 0.87431,1.222908 1.52798,1.658688 2.74814,1.615109 a 5.0141947,5.0141947 0 0 0 0.91784,-0.08716 z m 8.11372,-24.986538 v 1.08945 c 0,1.843895 -1.41904,3.153959 -3.617,3.153959 -2.04544,0 -3.59518,-1.310064 -3.59518,-3.153959 v -1.08945 c 0,-1.634176 1.57972,-3.050461 3.61424,-3.050461 2.1789,-0.01089 3.59794,1.399943 3.59794,3.050461 z m -0.52567,0 c 0,-1.391772 -1.18747,-2.579273 -3.08044,-2.579273 -1.7322,0 -3.07223,1.187501 -3.07223,2.579273 v 1.08945 c 0,1.590597 1.31006,2.680048 3.07223,2.680048 1.90656,0 3.08044,-1.089451 3.08044,-2.680048 z m -1.36179,2.325976 h 0.0898 v 0.405821 a 0.96688707,0.96688707 0 0 1 -0.32412,0.04903 0.67545915,0.67545915 0 0 1 -0.63457,-0.413991 l -0.70542,-1.32913 a 0.89334919,0.89334919 0 0 1 -0.16889,0 h -0.59648 v 1.683201 h -0.56378 V 37.88746 h 1.21746 c 0.8879,0 1.45168,0.452121 1.45168,1.108514 v 0.302325 a 1.0404249,1.0404249 0 0 1 -0.78438,1.026808 l 0.6455,1.198393 a 0.3513477,0.3513477 0 0 0 0.37858,0.201549 z m -0.79806,-2.451262 v -0.253298 c 0,-0.452122 -0.38129,-0.664565 -0.90696,-0.664565 h -0.63462 v 1.587874 h 0.56925 c 0.58558,0 0.97779,-0.231508 0.97779,-0.694524 z m -204.42715,46.38606 h -8.544 v 26.315666 h -5.49628 V 85.678921 h -8.59849 v -4.232508 h 22.63877 z m 5.67878,-4.232508 h 5.48807 v 30.548174 h -5.48807 z m 36.34946,0 v 30.548174 h -6.37051 L 360.98944,88.342623 v 23.651967 h -4.84261 V 81.446413 h 6.58844 l 11.73885,22.908407 V 81.446413 Z m 31.15287,26.925754 -0.0436,3.57884 a 4.5593492,4.5593492 0 0 1 -2.22518,0.47936 c -2.35593,0 -3.8403,-0.78713 -5.58617,-3.26835 l -7.41915,-10.515917 -3.05317,3.840307 v 9.51363 h -5.23754 V 81.446413 h 5.23754 v 14.094752 l 11.12599,-14.094752 h 5.80406 l -10.38518,13.310351 8.59849,12.174606 c 0.74357,1.08945 1.48438,1.48165 2.6201,1.4408 z m 10.29258,-22.693246 v 8.685642 h 11.3902 v 4.232511 h -11.3902 v 9.118703 h 12.3489 v 4.27881 H 415.30942 V 81.446413 h 17.84519 v 4.232508 z m 41.84579,22.734106 -0.0436,3.58156 a 5.6624179,5.6624179 0 0 1 -2.35593,0.43578 c -2.2688,0 -4.01463,-0.87156 -5.36824,-3.49168 l -4.49397,-8.68292 h -4.97607 v 11.73883 h -5.49631 V 81.446413 h 10.29804 c 6.41412,0 10.6902,3.05317 10.6902,8.116394 v 2.532976 c 0,3.183915 -2.09447,5.719612 -5.32467,7.067808 l 4.05819,7.767779 c 0.52567,0.96144 1.31281,1.48165 2.57654,1.48165 z M 445.41366,96.156706 h 4.58387 c 3.26835,0 5.41181,-1.484379 5.41181,-4.191657 v -2.178901 c 0,-2.704564 -2.1789,-4.188936 -5.41181,-4.188936 h -4.58387 z m 21.81349,5.014204 v -8.914431 c 0,-6.675608 4.19169,-11.387475 11.73884,-11.387475 7.15769,0 10.73653,4.101775 10.86728,9.426457 h -5.19396 c -0.17432,-3.317369 -1.83301,-5.193949 -5.67332,-5.193949 -4.01462,0 -6.15266,2.748139 -6.15266,6.809063 v 9.606225 c 0,4.0582 2.13804,6.76549 6.06552,6.76549 4.01463,0 5.67332,-1.96374 5.8476,-5.23753 h 5.23754 c -0.43579,5.62973 -3.84031,9.51362 -11.21589,9.51362 -7.15769,0.002 -11.52095,-4.70915 -11.52095,-11.38747 z m 43.94026,2.79715 h -10.5595 l -2.30961,8.02653 h -5.54261 l 9.33659,-30.548177 h 7.46276 l 9.80506,30.548177 h -5.67061 z m -9.32842,-4.412268 h 8.02925 L 505.81005,85.28672 Z m 44.06009,-5.8912 v 5.400949 c 0,7.942089 -4.71457,12.918159 -13.52824,12.918159 h -8.90081 V 81.446413 h 9.99301 c 8.29071,0 12.43604,4.886175 12.43604,12.218179 z m -5.49899,-0.130733 c 0,-4.976066 -2.35593,-7.854938 -7.20126,-7.854938 h -4.23252 v 22.080429 h 3.4481 c 5.32472,0 7.98568,-2.79172 7.98568,-8.595759 z m 15.27682,-8.849067 v 1.08945 c 0,1.843897 -1.419,3.15396 -3.61424,3.15396 -2.04544,0 -3.59794,-1.310063 -3.59794,-3.15396 v -1.08945 c 0,-1.634166 1.58243,-3.05045 3.61699,-3.05045 2.17619,0 3.59519,1.410835 3.59519,3.05045 z m -0.52296,0 c 0,-1.391769 -1.18747,-2.57927 -3.08311,-2.57927 -1.73224,0 -3.07227,1.187501 -3.07227,2.57927 v 1.108521 c 0,1.590593 1.31005,2.680043 3.07227,2.680043 1.90652,0 3.08311,-1.08945 3.08311,-2.680043 z m -1.36179,2.325983 h 0.0899 v 0.405814 a 0.94237447,0.94237447 0 0 1 -0.32413,0.04903 0.6700119,0.6700119 0 0 1 -0.63186,-0.413984 l -0.70542,-1.329134 a 0.90696729,0.90696729 0 0 1 -0.17161,0 h -0.59375 v 1.683201 h -0.56654 v -4.240679 h 1.22021 c 0.8879,0 1.44897,0.452117 1.44897,1.10851 v 0.302322 a 1.0377014,1.0377014 0 0 1 -0.78442,1.026805 l 0.64554,1.198392 a 0.35679496,0.35679496 0 0 0 0.37583,0.20155 z m -0.79531,-2.451267 v -0.253296 c 0,-0.452122 -0.38404,-0.664564 -0.90695,-0.664564 h -0.63462 v 1.612389 h 0.57199 c 0.57737,-0.01364 0.97229,-0.245133 0.97229,-0.708142 z"
       id="path1"
       style="stroke-width:0.272363" />
    <path
       d="M 153.48727,4.2833687 H 289.96818 V 140.76425 H 153.48727 Z"
       fill="#ffffff"
       id="path2"
       style="stroke-width:0.272363" />
    <path
       d="M 153.48727,4.2833687 H 195.0716 V 45.867683 h -41.58433 z"
       fill="#fb4725"
       id="path3"
       style="stroke-width:0.272363" />
    <path
       d="M 170.79595,38.554748 H 177.94 V 17.392179 h 7.97204 v -6.043726 h -23.36052 v 6.043726 h 8.24443 z"
       fill="#ffffff"
       id="path4"
       style="stroke-width:0.272363" />
    <path
       d="M 195.107,45.903089 H 153.48727 V 4.2833687 H 195.107 Z m -24.24026,-7.206712 h 7.13317 V 17.53653 h 7.96934 v -6.046448 h -23.35236 v 6.046448 h 8.24439 z"
       fill="#fb4725"
       id="path5"
       style="stroke-width:0.272363" />
    <path
       d="M 242.54985,45.903089 H 200.91648 V 4.2833687 h 41.63337 z M 225.30112,11.490082 h -7.1468 v 27.206295 h 7.1468 z"
       fill="#ff7b39"
       id="path6"
       style="stroke-width:0.272363" />
    <path
       d="M 289.96818,45.903089 H 248.34845 V 4.2833687 h 41.61973 z m -26.44643,-25.732812 8.34791,18.520653 h 9.51908 V 11.490082 h -6.59662 v 18.703136 l -8.26076,-18.703136 h -9.60351 v 27.206295 h 6.5939 z"
       fill="#fc9b3a"
       id="path7"
       style="stroke-width:0.272363" />
    <path
       d="M 195.107,93.345929 H 153.48727 V 51.712584 H 195.107 Z m -8.29888,-34.42663 h -8.63389 l -8.22533,9.982087 v -9.982087 h -7.14409 v 27.209018 h 7.14409 V 75.097638 l 8.76189,11.030679 h 8.98795 l -12.3843,-14.435214 z"
       fill="#22b45c"
       id="path8"
       style="stroke-width:0.272363" />
    <path
       d="M 242.54985,93.345929 H 200.91648 V 51.712584 h 41.63337 z M 231.08339,80.918021 h -11.55364 v -6.046445 h 10.71748 v -5.221191 h -10.71748 v -5.234809 h 10.99257 v -5.496277 h -18.13933 v 27.209018 h 18.68951 z"
       fill="#91ca06"
       id="path9"
       style="stroke-width:0.272363" />
    <path
       d="m 248.34845,51.712584 v 41.633345 h 41.61973 V 51.712584 Z m 25.31337,34.415733 -2.48669,-6.945243 c -1.12755,-3.034118 -1.63417,-3.772223 -3.99282,-3.772223 h -1.4408 v 10.717466 h -6.86895 V 58.919299 h 10.82366 c 6.12269,0 9.77508,2.813505 9.77508,7.489967 0,3.045018 -1.63417,5.327415 -4.53483,6.463166 1.24196,0.817092 1.97465,2.110815 2.74268,4.001008 l 3.66331,9.260319 z"
       fill="#d6d230"
       id="path10"
       style="stroke-width:0.272363" />
    <path
       d="m 267.79784,64.14049 h -2.05633 v 6.054615 h 1.90656 c 2.14346,0 4.69552,-0.54472 4.69552,-3.230218 -0.005,-2.048164 -1.2774,-2.824397 -4.54575,-2.824397 z"
       fill="#d6d230"
       id="path11"
       style="stroke-width:0.272363" />
    <path
       d="M 195.107,140.76425 H 153.48727 V 99.144521 H 195.107 Z m -11.48822,-13.39207 a 12.784698,12.784698 0 0 1 -5.24571,1.02136 c -5.13951,0 -8.20903,-3.15396 -8.20903,-8.44324 0,-5.0496 3.34736,-8.44323 8.32615,-8.44323 a 13.890491,13.890491 0 0 1 5.07139,0.98867 l 0.89878,0.37586 0.3132,-5.8095 -0.5202,-0.15252 a 24.725074,24.725074 0 0 0 -6.65383,-0.95872 c -8.57668,0 -14.8029,5.88848 -14.8029,13.99944 0,4.30877 1.44081,7.89852 4.16714,10.34978 2.61469,2.36955 6.2916,3.62242 10.63576,3.62242 2.50849,0 4.91887,-0.4031 6.78457,-1.13031 l 0.46301,-0.18248 -0.31049,-5.64335 z"
       fill="#0066b6"
       id="path12"
       style="stroke-width:0.272363" />
    <path
       d="m 218.2415,121.73973 h 6.66195 l -3.28465,-9.10509 z"
       fill="#429acc"
       id="path13"
       style="stroke-width:0.272363" />
    <path
       d="m 200.91648,99.144521 v 41.619729 h 41.63337 V 99.144521 Z m 27.96078,34.413009 -2.28242,-6.59661 h -10.00932 l -2.32324,6.59661 h -7.11958 l 10.34978,-27.2063 h 8.44326 l 10.3879,27.2063 z"
       fill="#429acc"
       id="path14"
       style="stroke-width:0.272363" />
    <g
       fill="#6cbadd"
       id="g16"
       transform="matrix(0.27236256,0,0,0.27236256,153.48727,4.2833687)">
      <path
         d="m 414.34,393.92 h -6.5 v 61.55 h 4.1 c 20.36,0 31.13,-11.4 31.13,-32.12 0,-18.69 -10.2,-29.43 -28.73,-29.43 z"
         id="path15" />
      <path
         d="M 348.29,348.29 V 501.1 H 501.1 V 348.29 Z m 66.63,126.35 h -33.31 v -99.89 h 35.87 c 33.93,0 52.63,17.29 52.63,48.58 0,32.09 -20.63,51.31 -55.19,51.31 z"
         id="path16" />
    </g>
  </g>
</svg>
