<?xml version="1.0" encoding="UTF-8" standalone="no"?>
<svg
   viewBox="0 0 2267.7166 2267.7165"
   version="1.1"
   id="svg13"
   sodipodi:docname="tinkercad_ok.svg"
   inkscape:version="1.3 (0e150ed6c4, 2023-07-21)"
   width="600mm"
   height="600mm"
   xmlns:inkscape="http://www.inkscape.org/namespaces/inkscape"
   xmlns:sodipodi="http://sodipodi.sourceforge.net/DTD/sodipodi-0.dtd"
   xmlns="http://www.w3.org/2000/svg"
   xmlns:svg="http://www.w3.org/2000/svg">
  <defs
     id="defs13" />
  <sodipodi:namedview
     id="namedview13"
     pagecolor="#ffffff"
     bordercolor="#000000"
     borderopacity="0.25"
     inkscape:showpageshadow="2"
     inkscape:pageopacity="0.0"
     inkscape:pagecheckerboard="0"
     inkscape:deskcolor="#d1d1d1"
     inkscape:zoom="0.071293458"
     inkscape:cx="3703.0046"
     inkscape:cy="1353.5604"
     inkscape:window-width="1366"
     inkscape:window-height="697"
     inkscape:window-x="-8"
     inkscape:window-y="-8"
     inkscape:window-maximized="1"
     inkscape:current-layer="svg13"
     inkscape:document-units="mm" />
  <g
     id="g1"
     transform="matrix(0.5437594,0,0,0.5437594,74.632811,-221.1878)">
    <path
       d="M 36.515023,580.54392 H 3859.4193 V 4403.4474 H 36.515023 Z"
       fill="#ffffff"
       id="path2"
       style="stroke-width:7.62904" />
    <path
       d="M 36.515023,580.54392 H 1201.3146 V 1745.3431 H 36.515023 Z"
       fill="#fb4725"
       id="path3"
       style="stroke-width:7.62904" />
    <path
       d="M 521.34053,1540.5038 H 721.44924 V 947.7288 H 944.7504 V 778.44076 H 290.40958 V 947.7288 h 230.93095 z"
       fill="#ffffff"
       id="path4"
       style="stroke-width:7.62904" />
    <path
       d="M 1202.3062,1746.3348 H 36.515023 V 580.54392 H 1202.3062 Z M 523.3234,1544.4709 H 723.12736 V 951.77215 H 946.35289 V 782.40786 H 292.24063 v 169.36429 h 230.92983 z"
       fill="#fb4725"
       id="path5"
       style="stroke-width:7.62904" />
    <path
       d="M 2531.2062,1746.3348 H 1365.0329 V 580.54392 H 2531.2062 Z M 2048.0599,782.40786 h -200.1858 v 762.06304 h 200.1858 z"
       fill="#ff7b39"
       id="path6"
       style="stroke-width:7.62904" />
    <path
       d="M 3859.4193,1746.3348 H 2693.6281 V 580.54392 h 1165.7912 z m -740.7789,-720.79 233.8295,518.7736 h 266.6346 V 782.40786 H 3434.3296 V 1306.2928 L 3202.9413,782.40786 h -268.9996 v 762.06304 h 184.6987 z"
       fill="#fc9b3a"
       id="path7"
       style="stroke-width:7.62904" />
    <path
       d="M 1202.3062,3075.2345 H 36.515023 V 1909.0619 H 1202.3062 Z M 969.85009,2110.9259 H 728.01015 L 497.6142,2390.5296 V 2110.9259 H 297.50437 v 762.1394 H 497.6142 V 2564.09 l 245.42529,308.9753 H 994.79684 L 647.90588,2468.7271 Z"
       fill="#22b45c"
       id="path8"
       style="stroke-width:7.62904" />
    <path
       d="M 2531.2062,3075.2345 H 1365.0329 V 1909.0619 h 1166.1733 z m -321.1818,-348.1124 h -323.6237 v -169.3642 h 300.2024 v -146.2484 h -300.2024 v -146.6299 h 307.9078 v -153.9537 h -508.0924 v 762.1394 h 523.5033 z"
       fill="#91ca06"
       id="path9"
       style="stroke-width:7.62904" />
    <path
       d="M 2693.6281,1909.0619 V 3075.2345 H 3859.4193 V 1909.0619 Z m 709.0412,964.0034 -69.6535,-194.54 c -31.5833,-84.9873 -45.774,-105.6621 -111.8411,-105.6621 h -40.3576 v 300.2021 h -192.403 v -762.1394 h 303.1766 c 171.4999,0 273.8053,78.8078 273.8053,209.7981 0,85.2926 -45.774,149.2238 -127.0231,181.0368 34.788,22.8871 55.3111,59.125 76.824,112.0704 l 102.6113,259.3865 z"
       fill="#d6d230"
       id="path10"
       style="stroke-width:7.62904" />
    <path
       d="m 3238.416,2257.1743 h -57.5989 v 169.5931 h 53.4038 c 60.0395,0 131.5241,-15.2579 131.5241,-90.4802 -0.1401,-57.3702 -35.7807,-79.1129 -127.329,-79.1129 z"
       fill="#d6d230"
       id="path11"
       style="stroke-width:7.62904" />
    <path
       d="M 1202.3062,4403.4474 H 36.515023 V 3237.6562 H 1202.3062 Z M 880.51495,4028.3282 a 358.10632,358.10632 0 0 1 -146.93518,28.6089 c -143.96046,0 -229.93938,-88.3441 -229.93938,-236.4997 0,-141.4421 93.76137,-236.4995 233.21997,-236.4995 a 389.08018,389.08018 0 0 1 142.05239,27.6932 l 25.17531,10.528 8.7729,-162.7272 -14.57108,-4.2722 a 692.56272,692.56272 0 0 0 -186.37739,-26.8542 c -240.23745,0 -414.63725,164.9395 -414.63725,392.1319 0,120.6909 40.35787,221.2418 116.72385,289.9029 73.23889,66.3724 176.23113,101.466 297.9134,101.466 70.26417,0 137.78022,-11.2911 190.03949,-31.6606 l 12.96916,-5.1114 -8.69699,-158.0733 z"
       fill="#0066b6"
       id="path12"
       style="stroke-width:7.62904" />
    <path
       d="m 1850.3161,3870.5603 h 186.6048 l -92.0048,-255.0385 z"
       fill="#429acc"
       id="path13"
       style="stroke-width:7.62904" />
    <path
       d="M 1365.0329,3237.6562 V 4403.4474 H 2531.2062 V 3237.6562 Z m 783.1966,963.927 -63.9318,-184.7746 h -280.3665 l -65.0752,184.7746 H 1539.4327 L 1829.3356,3439.52 h 236.5003 l 290.9707,762.0632 z"
       fill="#429acc"
       id="path14"
       style="stroke-width:7.62904" />
    <g
       fill="#6cbadd"
       id="g16"
       transform="matrix(7.6290229,0,0,7.6290229,36.515023,580.54392)">
      <path
         d="m 414.34,393.92 h -6.5 v 61.55 h 4.1 c 20.36,0 31.13,-11.4 31.13,-32.12 0,-18.69 -10.2,-29.43 -28.73,-29.43 z"
         id="path15" />
      <path
         d="M 348.29,348.29 V 501.1 H 501.1 V 348.29 Z m 66.63,126.35 h -33.31 v -99.89 h 35.87 c 33.93,0 52.63,17.29 52.63,48.58 0,32.09 -20.63,51.31 -55.19,51.31 z"
         id="path16" />
    </g>
  </g>
</svg>
